<?xml version="1.0" encoding="UTF-8"?>
<svg xmlns="http://www.w3.org/2000/svg" width="1400" height="870" viewBox="0 0 1400 870" role="img" aria-label="Luke–Acts Greek Vocabulary Map: lexical engines, key Greek terms, and anchor references">
  <defs>
    <style>
      .bg{fill:#fafafa}
      .title{font:700 40px 'Cormorant Garamond', Georgia, serif; fill:#111827}
      .subtitle{font:600 16px 'DM Sans', system-ui, -apple-system, Segoe UI, Roboto, Arial, sans-serif; fill:#475569}
      .small{font:600 13px 'DM Sans', system-ui, -apple-system, Segoe UI, Roboto, Arial, sans-serif; fill:#64748b}
      .engineLabel{font:800 16px 'DM Sans', system-ui, -apple-system, Segoe UI, Roboto, Arial, sans-serif; letter-spacing:.08em; text-transform:uppercase}
      .cardTitle{font:700 22px 'Cormorant Garamond', Georgia, serif; fill:#0f172a}
      .cardSub{font:700 13px 'DM Sans', system-ui, -apple-system, Segoe UI, Roboto, Arial, sans-serif; fill:#64748b}
      .refs{font:700 12px 'DM Sans', system-ui, -apple-system, Segoe UI, Roboto, Arial, sans-serif; fill:#334155}
      .hint{font:700 12px 'DM Sans', system-ui, -apple-system, Segoe UI, Roboto, Arial, sans-serif; fill:#0f766e}
      .panel{fill:#ffffff; stroke:#e2e8f0; stroke-width:2}
      .link{stroke:#cbd5e1; stroke-width:2; fill:none}
      .chip{fill:#f8fafc; stroke:#e2e8f0; stroke-width:1}
      .chipText{font:700 11px 'DM Sans', system-ui, -apple-system, Segoe UI, Roboto, Arial, sans-serif; fill:#475569}
    </style>

    <pattern id="grid" width="60" height="60" patternUnits="userSpaceOnUse">
      <path d="M60 0H0V60" fill="none" stroke="#e2e8f0" stroke-width="0.6" opacity="0.6"/>
      <path d="M0 30H60M30 0V60" fill="none" stroke="#e2e8f0" stroke-width="0.35" opacity="0.45"/>
    </pattern>

    <marker id="arrow" viewBox="0 0 10 10" refX="9" refY="5" markerWidth="7" markerHeight="7" orient="auto-start-reverse">
      <path d="M 0 0 L 10 5 L 0 10 z" fill="#94a3b8"/>
    </marker>

    <linearGradient id="invGrad" x1="0" y1="0" x2="1" y2="0">
      <stop offset="0%" stop-color="#2563eb"/><stop offset="100%" stop-color="#60a5fa"/>
    </linearGradient>
    <linearGradient id="recGrad" x1="0" y1="0" x2="1" y2="0">
      <stop offset="0%" stop-color="#0f766e"/><stop offset="100%" stop-color="#2aa198"/>
    </linearGradient>
    <linearGradient id="powGrad" x1="0" y1="0" x2="1" y2="0">
      <stop offset="0%" stop-color="#7c3aed"/><stop offset="100%" stop-color="#a78bfa"/>
    </linearGradient>
    <linearGradient id="purGrad" x1="0" y1="0" x2="1" y2="0">
      <stop offset="0%" stop-color="#be185d"/><stop offset="100%" stop-color="#f472b6"/>
    </linearGradient>
    <linearGradient id="capGrad" x1="0" y1="0" x2="1" y2="0">
      <stop offset="0%" stop-color="#2aa198"/><stop offset="100%" stop-color="#d4a853"/>
    </linearGradient>
  </defs>

  <!-- Background -->
  <rect class="bg" x="0" y="0" width="1400" height="870"/>
  <rect x="0" y="0" width="1400" height="870" fill="url(#grid)" opacity="0.35"/>

  <!-- Header -->
  <text x="70" y="62" class="title">Luke–Acts Greek Vocabulary Map</text>
  <text x="70" y="96" class="subtitle">How key Greek terms power the four contrast engines — and where they anchor in Luke and Acts.</text>
  <text x="70" y="126" class="small">Use: (1) pick an engine → (2) pick a term → (3) jump to the scene(s) listed → (4) reread the contrast with lexical cues.</text>

  <!-- ── ROW 1: Inversion + Recognition (y=155, height=205) ── -->

  <!-- Inversion Engine -->
  <g transform="translate(70,155)">
    <rect class="panel" x="0" y="0" width="600" height="205" rx="18"/>
    <rect x="0" y="0" width="600" height="7" rx="18" fill="url(#invGrad)"/>
    <text x="22" y="38" class="engineLabel" fill="#2563eb">Inversion Engine</text>
    <text x="22" y="60" class="small">Reversal logic: low ⇄ high · poor ⇄ rich · blessed ⇄ woe</text>

    <g transform="translate(22,80)">
      <rect class="panel" x="0" y="0" width="263" height="108" rx="12"/>
      <rect x="0" y="0" width="263" height="4" rx="12" fill="url(#invGrad)"/>
      <text x="16" y="34" class="cardTitle">ταπεινός / ὑψόω</text>
      <text x="16" y="54" class="cardSub">lowly (adj.) / exalt</text>
      <text x="16" y="76" class="refs">Lk 1:52 · 14:11 · 18:14</text>
      <text x="16" y="96" class="refs">Acts 2:33 · 13:17</text>
    </g>

    <g transform="translate(301,80)">
      <rect class="panel" x="0" y="0" width="277" height="108" rx="12"/>
      <rect x="0" y="0" width="277" height="4" rx="12" fill="url(#invGrad)"/>
      <text x="16" y="34" class="cardTitle">πτωχός / πλούσιος</text>
      <text x="16" y="54" class="cardSub">destitute / wealthy</text>
      <text x="16" y="76" class="refs">Lk 4:18 · 6:20,24 · 16</text>
      <text x="16" y="96" class="refs">Lk 14:13,21 · 18:22</text>
    </g>
  </g>

  <!-- Recognition/Witness Engine -->
  <g transform="translate(730,155)">
    <rect class="panel" x="0" y="0" width="600" height="205" rx="18"/>
    <rect x="0" y="0" width="600" height="7" rx="18" fill="url(#recGrad)"/>
    <text x="22" y="38" class="engineLabel" fill="#0f766e">Recognition / Witness Engine</text>
    <text x="22" y="60" class="small">Perception + response: receive ⇄ reject · recognize ⇄ ignore · testify ⇄ silence</text>

    <g transform="translate(22,80)">
      <rect class="panel" x="0" y="0" width="263" height="108" rx="12"/>
      <rect x="0" y="0" width="263" height="4" rx="12" fill="url(#recGrad)"/>
      <text x="16" y="34" class="cardTitle">δέχομαι / ἀπωθέω</text>
      <text x="16" y="54" class="cardSub">receive / reject</text>
      <text x="16" y="76" class="refs">Lk 4:24 · 18:16</text>
      <text x="16" y="96" class="refs">Acts 7:39 · 11:17 · 28:28</text>
    </g>

    <g transform="translate(301,80)">
      <rect class="panel" x="0" y="0" width="277" height="108" rx="12"/>
      <rect x="0" y="0" width="277" height="4" rx="12" fill="url(#recGrad)"/>
      <text x="16" y="34" class="cardTitle">σωτήρ</text>
      <text x="16" y="54" class="cardSub">Savior: Caesar vs. Jesus</text>
      <text x="16" y="76" class="refs">Lk 2:11 · Acts 5:31</text>
      <text x="16" y="96" class="refs">Acts 13:23</text>
    </g>
  </g>

  <!-- ── CAPSTONE: clean gap between rows (top row ends y=360, capstone y=375–460, bottom row y=477) ── -->

  <!-- Connector lines: top engines DOWN to capstone -->
  <path class="link" d="M 670 360 C 670 375 700 368 700 375" marker-end="url(#arrow)"/>
  <path class="link" d="M 730 360 C 730 375 700 368 700 375" marker-end="url(#arrow)"/>

  <!-- Connector lines: capstone UP from bottom engines -->
  <path class="link" d="M 670 477 C 670 462 700 468 700 461" marker-end="url(#arrow)"/>
  <path class="link" d="M 730 477 C 730 462 700 468 700 461" marker-end="url(#arrow)"/>

  <!-- Capstone card: y=375 to y=460 = 85px, centered on x=700 -->
  <g transform="translate(450,375)">
    <rect x="0" y="0" width="500" height="85" rx="18" fill="#ffffff" stroke="#99f6e4" stroke-width="2"/>
    <rect x="0" y="0" width="500" height="7" rx="18" fill="url(#capGrad)"/>
    <text x="250" y="42" text-anchor="middle" class="cardTitle" style="font-size:32px;">ἀκωλύτως</text>
    <text x="250" y="64" text-anchor="middle" class="cardSub">unhindered · without obstacle</text>
    <text x="250" y="80" text-anchor="middle" class="refs" style="fill:#0f766e;">Acts 28:31 — final word in the Greek text</text>
  </g>

  <!-- ── ROW 2: Power + Purity (y=477, height=205) ── -->

  <!-- Power Engine -->
  <g transform="translate(70,477)">
    <rect class="panel" x="0" y="0" width="600" height="205" rx="18"/>
    <rect x="0" y="0" width="600" height="7" rx="18" fill="url(#powGrad)"/>
    <text x="22" y="38" class="engineLabel" fill="#7c3aed">Power Engine</text>
    <text x="22" y="60" class="small">Authority redefined: domination ⇄ service · human weakness ⇄ Spirit power</text>

    <g transform="translate(22,80)">
      <rect class="panel" x="0" y="0" width="263" height="108" rx="12"/>
      <rect x="0" y="0" width="263" height="4" rx="12" fill="url(#powGrad)"/>
      <text x="16" y="34" class="cardTitle">διακονέω / κατεξουσιάζω</text>
      <text x="16" y="54" class="cardSub">serve / lord over</text>
      <text x="16" y="76" class="refs">Lk 22:25–27</text>
      <text x="16" y="96" class="refs">Acts 6:1–2 · 20:34</text>
    </g>

    <g transform="translate(301,80)">
      <rect class="panel" x="0" y="0" width="277" height="108" rx="12"/>
      <rect x="0" y="0" width="277" height="4" rx="12" fill="url(#powGrad)"/>
      <text x="16" y="34" class="cardTitle">δύναμις</text>
      <text x="16" y="54" class="cardSub">Spirit power for mission</text>
      <text x="16" y="76" class="refs">Lk 1:35 · 4:14</text>
      <text x="16" y="96" class="refs">Acts 1:8 · 3:12 · 14–16</text>
    </g>
  </g>

  <!-- Purity/Boundary Engine -->
  <g transform="translate(730,477)">
    <rect class="panel" x="0" y="0" width="600" height="205" rx="18"/>
    <rect x="0" y="0" width="600" height="7" rx="18" fill="url(#purGrad)"/>
    <text x="22" y="38" class="engineLabel" fill="#be185d">Purity / Boundary Engine</text>
    <text x="22" y="60" class="small">Belonging re-drawn: clean ⇄ common · people ⇄ nations · peace given to outsiders</text>

    <g transform="translate(22,80)">
      <rect class="panel" x="0" y="0" width="263" height="108" rx="12"/>
      <rect x="0" y="0" width="263" height="4" rx="12" fill="url(#purGrad)"/>
      <text x="16" y="34" class="cardTitle">καθαρός / κοινός</text>
      <text x="16" y="54" class="cardSub">clean / common (defiled)</text>
      <text x="16" y="76" class="refs">Acts 10:14–15 · 11:8–9</text>
      <text x="16" y="96" class="refs">Luke-side: Lk 4:18; 11:41</text>
    </g>

    <g transform="translate(301,80)">
      <rect class="panel" x="0" y="0" width="277" height="108" rx="12"/>
      <rect x="0" y="0" width="277" height="4" rx="12" fill="url(#purGrad)"/>
      <text x="16" y="34" class="cardTitle">λαός / ἔθνη</text>
      <text x="16" y="54" class="cardSub">people (Israel) / nations</text>
      <text x="16" y="76" class="refs">Lk 2:32</text>
      <text x="16" y="96" class="refs">Acts 13:46 · 18:6 · 28:28</text>
    </g>
  </g>

  <!-- Footer chips -->
  <g transform="translate(70,738)">
    <rect class="panel" x="0" y="0" width="1260" height="52" rx="14"/>
    <text x="22" y="32" class="small">Also on this page:</text>

    <g transform="translate(195,12)">
      <rect class="chip" x="0" y="0" width="170" height="28" rx="8"/>
      <text x="12" y="19" class="chipText">μάρτυς (witness)</text>
    </g>
    <g transform="translate(380,12)">
      <rect class="chip" x="0" y="0" width="155" height="28" rx="8"/>
      <text x="12" y="19" class="chipText">σῴζω (save/heal)</text>
    </g>
    <g transform="translate(550,12)">
      <rect class="chip" x="0" y="0" width="200" height="28" rx="8"/>
      <text x="12" y="19" class="chipText">ἄφεσις (release/forgive)</text>
    </g>
    <g transform="translate(765,12)">
      <rect class="chip" x="0" y="0" width="185" height="28" rx="8"/>
      <text x="12" y="19" class="chipText">εἰρήνη (peace/shalom)</text>
    </g>
    <g transform="translate(965,12)">
      <rect class="chip" x="0" y="0" width="175" height="28" rx="8"/>
      <text x="12" y="19" class="chipText">χάρις (grace/favor)</text>
    </g>
  </g>


</svg>
